<?xml version="1.0" standalone="no"?>
<!DOCTYPE svg PUBLIC "-//W3C//DTD SVG 20010904//EN"
 "http://www.w3.org/TR/2001/REC-SVG-20010904/DTD/svg10.dtd">
<svg version="1.0" xmlns="http://www.w3.org/2000/svg"
 width="169.000000pt" height="169.000000pt" viewBox="0 0 169.000000 169.000000"
 preserveAspectRatio="xMidYMid meet">
<metadata>
Created by potrace 1.14, written by Peter Selinger 2001-2017
</metadata>
<g transform="translate(0.000000,169.000000) scale(0.100000,-0.100000)"
fill="#000000" stroke="none">
<path d="M953 1487 c-2 -4 -10 -7 -16 -5 -7 1 -37 -4 -67 -10 -30 -7 -64 -14
-75 -16 -58 -12 -121 -30 -132 -39 -7 -5 -13 -7 -13 -3 0 4 -13 0 -29 -8 -16
-9 -31 -12 -35 -9 -3 4 -6 1 -6 -6 0 -7 -7 -19 -15 -27 -25 -25 -19 -47 11
-41 37 7 45 -25 46 -183 0 -176 -1 -180 -54 -180 -15 0 -30 -4 -33 -10 -3 -5
-1 -10 4 -10 6 0 11 -6 11 -14 0 -16 18 -33 40 -38 33 -7 36 -23 34 -218 -2
-241 0 -222 -24 -248 -22 -23 -17 -30 20 -27 14 1 44 -4 68 -12 73 -24 110
-14 152 41 13 18 13 19 0 11 -12 -6 -13 -5 -2 6 21 23 13 30 -16 15 -25 -13
-30 -12 -50 2 -33 26 -39 61 -40 260 -1 177 -1 184 21 207 29 32 84 53 129 49
44 -3 54 7 37 38 -29 54 -71 67 -136 44 -26 -9 -45 -11 -48 -5 -4 5 -1 9 5 9
6 0 8 5 5 11 -4 5 -6 58 -6 116 2 150 21 176 144 190 53 6 83 -9 68 -35 -27
-48 39 -73 79 -29 18 18 20 31 17 77 -2 30 -8 63 -12 72 -4 9 -4 22 0 27 4 7
-9 10 -35 8 -23 -1 -44 -5 -47 -10z"/>
<path d="M1475 1343 c-26 -5 -87 -59 -106 -93 -10 -19 -14 -75 -15 -220 -1
-180 0 -197 19 -224 63 -90 232 -55 271 57 14 40 15 364 1 407 -20 62 -85 90
-170 73z m66 -125 c7 -13 12 -24 11 -26 -1 -1 -9 -16 -17 -32 -9 -17 -20 -30
-25 -30 -16 0 0 -28 19 -33 15 -3 17 -17 17 -104 -1 -84 -4 -102 -20 -119 -11
-10 -20 -19 -20 -18 -1 0 -11 6 -23 12 -21 12 -22 17 -20 182 2 140 5 172 17
180 25 16 49 11 61 -12z"/>
<path d="M300 1284 c-25 -6 -52 -13 -60 -15 -8 -2 -17 -6 -20 -10 -3 -3 -21
-15 -41 -27 -48 -29 -105 -95 -132 -152 -25 -54 -31 -195 -8 -209 7 -5 12 -11
12 -15 -3 -18 1 -27 25 -56 41 -48 153 -96 242 -103 12 -1 22 -5 22 -10 0 -5
7 -7 15 -3 8 3 15 2 15 -3 0 -4 11 -14 25 -21 13 -7 22 -17 19 -22 -3 -5 0
-15 6 -23 15 -18 11 -112 -6 -147 -23 -45 -68 -87 -102 -94 -30 -6 -36 -14
-33 -41 2 -16 -35 -26 -73 -19 -40 8 -75 43 -78 79 -1 15 -6 27 -11 27 -4 0
-3 10 4 21 8 16 8 20 -1 14 -7 -4 -5 5 4 23 18 35 32 46 63 48 21 1 49 -38 39
-55 -3 -4 -1 -13 3 -20 6 -9 18 -3 44 23 21 20 38 39 38 43 11 71 6 97 -22
125 -25 25 -36 29 -76 27 -27 -1 -52 -5 -58 -8 -5 -3 -16 -6 -23 -7 -25 -4
-102 -92 -108 -123 -4 -17 -9 -31 -13 -31 -7 0 -5 -125 3 -158 13 -55 80 -130
124 -140 20 -4 101 -4 122 0 8 2 36 14 62 26 48 24 151 116 141 126 -4 3 -1 6
5 6 15 0 69 118 79 176 8 41 10 119 3 119 -1 0 -3 10 -6 23 -9 49 -72 131 -88
115 -3 -4 -6 0 -6 7 0 7 -3 10 -7 7 -3 -4 -11 -3 -17 2 -12 10 -21 12 -134 32
-68 12 -121 42 -137 77 -5 12 -12 22 -15 22 -11 0 -2 76 12 110 15 35 74 99
93 101 6 0 15 5 22 11 21 17 93 17 103 -1 5 -9 10 -11 10 -6 1 6 7 -6 14 -25
15 -41 5 -82 -29 -115 -17 -17 -26 -20 -48 -12 -26 8 -32 24 -27 72 2 17 0 18
-17 5 -34 -26 -62 -58 -56 -64 4 -3 2 -6 -4 -6 -19 0 -8 -86 15 -110 40 -43
144 -19 202 46 35 40 69 114 72 160 2 22 10 46 19 54 19 17 34 60 22 61 -4 0
-20 2 -35 3 -15 1 -33 8 -40 17 -39 46 -99 62 -168 43z"/>
<path d="M1161 1284 c-1 -6 -11 -10 -23 -9 -13 1 -34 -6 -47 -17 -13 -10 -30
-18 -37 -18 -8 0 -14 -4 -14 -8 0 -5 -8 -17 -17 -28 -27 -30 -27 -34 -29 -234
-1 -170 1 -188 20 -223 25 -46 56 -64 111 -64 98 0 174 85 166 185 -2 23 -41
52 -69 52 -33 0 -82 -54 -58 -63 24 -10 26 -46 3 -59 -27 -15 -39 -16 -53 -6
-13 10 -12 354 1 367 17 15 55 23 55 11 0 -6 4 -9 9 -6 4 3 6 -6 3 -19 -2 -14
-8 -25 -13 -25 -17 0 -9 -35 10 -47 27 -17 74 0 96 34 19 29 22 87 6 107 -6 7
-9 15 -6 18 8 8 -75 50 -90 44 -7 -2 -16 0 -19 7 -3 7 -5 8 -5 1z"/>
<path d="M1530 679 c-8 -3 -27 -12 -41 -19 -23 -10 -56 -51 -58 -72 -1 -5 -1
-11 -2 -15 0 -5 0 -33 1 -63 2 -86 37 -123 115 -124 40 -1 40 -1 41 -41 1 -53
-3 -62 -30 -67 -15 -3 -27 2 -34 12 -12 20 -5 63 9 54 5 -3 9 0 9 6 0 12 -79
8 -100 -5 -15 -9 -12 -62 5 -94 25 -48 110 -74 160 -49 11 6 29 20 40 32 18
18 20 36 22 181 2 88 1 170 -2 182 -9 38 -57 79 -87 74 -5 0 -8 3 -8 7 0 11
-21 11 -40 1z m49 -93 c12 -14 12 -87 1 -106 -10 -16 -47 -20 -58 -7 -15 17
-7 108 9 118 20 12 35 11 48 -5z"/>
<path d="M1337 653 c-2 -1 -18 -5 -37 -8 -47 -9 -65 -13 -65 -15 0 -2 -38 -11
-53 -12 -9 -1 -12 -19 -11 -65 l2 -64 21 24 c20 24 85 44 99 31 3 -3 -3 -28
-13 -55 -11 -27 -17 -49 -14 -49 4 0 2 -6 -3 -12 -11 -14 -27 -68 -25 -80 1
-5 -2 -8 -6 -8 -4 0 -14 -21 -21 -48 -8 -26 -25 -59 -38 -73 l-25 -27 81 1
c62 1 78 4 70 13 -6 7 -8 28 -4 46 3 18 7 39 7 46 1 6 6 12 11 12 6 0 8 3 4 6
-3 3 3 30 13 59 10 29 16 56 13 59 -4 3 -1 6 6 6 7 0 11 6 8 14 -3 8 -3 17 1
21 4 4 8 11 8 16 1 5 3 11 4 14 4 8 7 17 15 53 4 17 11 32 15 32 4 0 6 11 5
25 -2 14 1 25 6 25 6 0 7 5 4 10 -5 9 -70 11 -78 3z"/>
<path d="M1029 565 c-3 -2 -14 -6 -25 -8 -10 -2 -33 -11 -50 -20 -17 -9 -34
-14 -38 -12 -3 3 -4 2 -1 -2 3 -3 -3 -12 -13 -19 -15 -12 -15 -13 5 -9 12 2
32 -4 44 -14 20 -16 22 -28 24 -127 1 -103 -5 -141 -28 -155 -5 -4 25 -7 67
-6 42 0 76 3 76 6 0 4 -9 13 -19 20 -15 11 -17 19 -10 38 5 12 5 23 1 23 -4 0
-7 27 -7 60 0 33 4 60 8 60 5 0 5 5 1 11 -4 7 -7 43 -8 82 -1 62 -11 89 -27
72z"/>
</g>
</svg>
