<?xml version="1.0" standalone="no"?>
<!DOCTYPE svg PUBLIC "-//W3C//DTD SVG 20010904//EN"
 "http://www.w3.org/TR/2001/REC-SVG-20010904/DTD/svg10.dtd">
<svg version="1.0" xmlns="http://www.w3.org/2000/svg"
 width="359.000000pt" height="359.000000pt" viewBox="0 0 359.000000 359.000000"
 preserveAspectRatio="xMidYMid meet">
<metadata>
Created by potrace 1.14, written by Peter Selinger 2001-2017
</metadata>
<g transform="translate(0.000000,359.000000) scale(0.100000,-0.100000)"
fill="#000000" stroke="none">
<path d="M2168 3189 c-31 -10 -74 -20 -95 -24 -22 -3 -48 -7 -60 -9 -11 -3
-36 -7 -54 -10 -66 -10 -235 -47 -334 -72 -239 -59 -369 -109 -380 -145 -4
-10 -11 -19 -16 -19 -10 0 -30 -42 -36 -76 -2 -13 3 -24 12 -28 11 -4 14 -2 9
6 -5 8 -2 9 9 5 9 -3 19 -2 21 2 11 17 49 5 68 -19 25 -35 30 -107 31 -443 0
-260 -2 -279 -19 -293 -34 -27 -64 -34 -114 -28 l-49 6 5 -27 c13 -71 51 -111
124 -130 29 -8 54 -16 57 -19 3 -2 4 -49 3 -103 -1 -54 -2 -186 -2 -293 1
-546 1 -520 -10 -520 -4 0 -5 -7 -2 -15 4 -8 1 -15 -7 -15 -7 0 -10 -3 -6 -6
3 -3 1 -11 -4 -18 -5 -6 -17 -20 -25 -31 -9 -11 -13 -13 -9 -5 4 8 -1 6 -9 -4
-31 -38 -10 -62 22 -26 8 8 11 9 7 3 -4 -8 0 -13 9 -13 9 0 16 4 16 8 0 8 90
8 120 0 8 -3 36 -14 61 -27 45 -21 85 -27 142 -20 15 2 27 7 27 11 0 4 7 8 15
8 8 0 15 5 15 10 0 6 5 10 11 10 24 0 77 69 87 114 5 25 7 48 4 51 -10 10 -21
5 -26 -13 -6 -18 -53 -50 -71 -47 -38 6 -105 58 -105 82 0 7 -5 13 -11 13 -5
0 -7 5 -4 10 3 6 2 10 -3 10 -5 0 -9 6 -10 13 -11 134 -14 226 -15 510 -1 185
2 337 6 337 5 0 6 4 3 9 -3 5 4 21 16 36 32 41 82 92 73 75 -7 -13 -6 -13 11
1 47 37 99 51 194 51 85 -1 113 -5 123 -17 4 -5 6 1 3 15 -7 44 -11 54 -24 68
-7 8 -10 18 -7 23 4 5 1 9 -5 9 -6 0 -15 11 -22 25 -6 13 -15 22 -19 19 -5 -3
-9 2 -9 10 0 14 -6 18 -26 15 -4 0 -10 5 -15 13 -5 8 -30 13 -71 13 -50 0 -77
-7 -132 -33 -38 -18 -71 -30 -74 -27 -7 6 -6 513 1 545 12 60 11 57 50 103 14
15 28 27 32 27 5 0 16 6 24 14 22 19 184 50 256 49 51 -1 62 -5 82 -28 27 -31
29 -60 7 -105 -16 -31 -16 -33 2 -44 28 -17 64 -25 64 -16 0 5 8 7 19 5 28 -5
86 39 106 81 9 20 17 53 17 73 0 44 -4 69 -29 176 -9 44 -8 67 5 92 17 30 6
33 -60 12z"/>
<path d="M3189 2856 c-72 -25 -149 -70 -149 -88 0 -6 -3 -8 -6 -5 -4 3 -19
-10 -34 -31 -34 -48 -81 -132 -74 -132 4 0 2 -6 -3 -12 -14 -18 -16 -84 -17
-458 0 -179 4 -334 9 -345 4 -11 9 -23 9 -26 5 -30 113 -137 134 -132 4 0 15
-3 26 -9 31 -17 114 -20 169 -8 150 36 262 141 292 274 9 43 11 324 3 601 -1
22 0 63 1 90 1 43 -3 84 -9 93 -2 1 -3 5 -4 10 -8 47 -106 162 -138 162 -8 0
-19 5 -25 11 -5 5 -30 12 -55 13 -25 2 -50 6 -55 9 -5 3 -38 -4 -74 -17z m121
-239 c14 -16 18 -35 16 -67 -4 -57 -16 -100 -27 -100 -5 0 -9 -5 -9 -11 0 -7
-16 -27 -36 -45 -38 -36 -38 -54 1 -54 13 0 35 -4 48 -9 l24 -9 -1 -214 -1
-213 -25 -26 c-55 -57 -131 -62 -153 -10 -9 20 -12 129 -12 372 1 376 0 374
60 404 39 19 92 11 115 -18z"/>
<path d="M695 2739 c-27 -4 -63 -12 -80 -19 -16 -6 -31 -11 -32 -11 -5 1 -39
-12 -73 -27 -19 -9 -38 -15 -42 -14 -5 1 -8 -3 -8 -8 0 -5 -5 -10 -11 -10 -6
0 -31 -14 -57 -32 -26 -18 -48 -32 -49 -30 -1 1 -33 -29 -69 -65 -70 -70 -135
-161 -156 -219 -7 -19 -15 -34 -19 -34 -4 0 -6 -8 -4 -17 1 -10 -2 -26 -7 -36
-17 -33 -29 -107 -30 -182 -1 -63 6 -110 24 -160 51 -145 121 -227 251 -290
50 -24 94 -42 99 -39 4 3 8 0 8 -5 0 -6 3 -10 8 -9 4 1 32 -4 62 -11 30 -7 64
-14 76 -16 97 -13 245 -72 272 -107 7 -9 19 -24 27 -31 56 -57 66 -251 19
-367 -30 -74 -114 -180 -143 -180 -6 0 -11 -4 -11 -10 0 -14 -33 -29 -77 -35
-61 -9 -63 -11 -63 -58 0 -39 -3 -46 -27 -55 -82 -31 -123 -32 -186 -2 -55 26
-78 50 -113 119 -29 60 -39 154 -22 222 11 40 65 112 78 104 5 -3 11 -1 15 5
4 6 11 8 16 5 5 -4 9 -2 9 3 0 10 57 1 78 -12 22 -13 40 -72 36 -119 -4 -48 2
-57 24 -35 7 7 12 9 12 6 0 -7 42 26 76 61 37 37 73 121 77 179 2 29 0 55 -5
58 -5 3 -8 11 -6 17 3 21 -33 83 -55 94 -97 52 -153 60 -244 36 -77 -20 -148
-60 -200 -114 -49 -51 -103 -127 -103 -146 0 -7 -4 -13 -8 -13 -5 0 -9 -7 -10
-15 -1 -8 -3 -22 -4 -30 -1 -8 -5 -15 -10 -15 -4 0 -7 -3 -6 -7 1 -5 -2 -28
-7 -53 -15 -84 -8 -232 15 -301 50 -147 167 -263 300 -297 67 -17 184 -6 270
26 8 3 17 6 20 7 17 4 86 40 91 48 3 5 8 7 10 6 9 -7 105 67 172 132 38 38 67
69 64 69 -3 0 5 12 20 27 60 65 184 318 168 343 -4 6 -2 10 3 10 5 0 9 6 9 13
1 6 5 32 9 57 10 52 9 221 0 265 -4 17 -16 49 -26 72 -11 23 -21 48 -22 55 -2
7 -11 20 -20 29 -10 9 -18 22 -18 28 0 7 -4 9 -10 6 -5 -3 -10 0 -10 7 0 8
-10 20 -21 28 -12 8 -27 20 -34 27 -7 7 -15 9 -19 6 -3 -4 -6 -1 -6 6 0 7 -4
9 -10 6 -5 -3 -10 -2 -10 3 0 5 -21 15 -47 22 -27 7 -52 17 -58 21 -5 4 -14 7
-20 7 -9 0 -92 13 -105 17 -3 0 -31 5 -63 9 -80 11 -194 43 -242 69 -112 61
-166 184 -140 317 10 53 30 110 38 110 4 0 5 5 2 10 -3 6 -2 10 4 10 5 0 12 8
16 19 8 25 120 138 145 146 11 4 20 10 20 14 0 4 6 8 13 9 6 0 32 8 57 17 151
57 278 -5 282 -138 3 -77 -17 -131 -65 -181 -64 -66 -110 -75 -159 -29 -15 14
-27 33 -27 42 0 9 -2 23 -2 31 -1 8 1 31 5 52 6 31 4 36 -11 33 -10 -2 -22 -4
-26 -4 -5 -1 -5 -6 -1 -13 4 -7 3 -8 -5 -4 -7 5 -29 -10 -57 -38 -25 -25 -42
-46 -38 -46 3 0 1 -7 -6 -15 -13 -16 -37 -110 -34 -132 1 -7 2 -24 3 -37 0
-13 16 -42 34 -66 45 -58 100 -78 187 -68 36 4 66 12 68 18 2 5 12 10 21 10
21 0 111 58 111 72 0 5 3 8 8 6 4 -2 21 10 37 26 17 16 23 26 15 21 -8 -5 -1
5 16 21 17 16 34 39 38 52 4 12 12 22 17 22 5 0 9 4 9 9 0 5 7 25 15 45 8 20
16 39 16 43 0 5 5 14 11 21 6 6 7 12 4 12 -4 0 -2 8 3 18 8 15 19 87 25 165 0
9 15 26 31 37 17 11 26 20 22 20 -4 0 1 10 12 22 11 11 18 25 15 30 -3 4 0 8
7 8 7 0 9 3 6 6 -3 4 -2 14 3 23 5 10 5 23 0 30 -6 10 -10 9 -19 -5 -6 -11
-11 -16 -11 -12 0 4 -10 4 -22 -1 -39 -14 -90 8 -139 60 -26 26 -49 46 -53 42
-3 -3 -6 -1 -6 6 0 7 -4 9 -10 6 -5 -3 -10 -1 -10 4 0 6 -8 11 -18 11 -10 0
-22 3 -26 7 -3 4 -19 8 -34 9 -15 2 -40 4 -57 6 -16 2 -52 1 -80 -3z"/>
<path d="M2407 2698 c-73 -22 -155 -76 -202 -133 -20 -25 -34 -45 -31 -45 3 0
-2 -17 -11 -37 -11 -25 -17 -76 -19 -151 -2 -62 -6 -117 -9 -123 -4 -5 -1 -9
5 -9 8 0 9 -7 5 -17 -6 -17 -6 -97 -1 -408 1 -103 5 -127 25 -169 67 -136 200
-190 349 -139 99 33 223 147 238 218 1 6 6 28 11 50 6 22 8 49 7 60 -2 11 -5
30 -6 43 -1 12 -6 22 -10 22 -4 0 -7 3 -6 8 4 11 -28 53 -35 45 -4 -3 -7 1 -7
10 0 10 -8 17 -18 17 -10 0 -22 4 -27 9 -16 16 -112 -22 -140 -55 -52 -59 -53
-69 -15 -82 89 -32 5 -184 -88 -160 -55 14 -57 32 -55 396 0 180 2 343 2 363
1 32 14 53 53 84 21 17 93 11 113 -8 26 -27 15 -89 -21 -121 -36 -31 -27 -52
38 -83 44 -22 48 -22 85 -7 118 49 173 202 112 311 -27 48 -49 80 -49 71 0 -4
-16 3 -35 16 -60 41 -169 51 -258 24z"/>
<path d="M3286 1428 c-22 -5 -45 -13 -53 -19 -7 -6 -13 -8 -13 -5 0 9 -22 -9
-73 -60 -60 -59 -73 -105 -71 -249 1 -100 4 -127 22 -160 21 -42 56 -77 66
-68 3 4 6 2 6 -4 0 -14 67 -41 118 -47 21 -2 57 -1 78 4 25 6 41 5 45 -2 5 -8
6 -159 0 -205 -2 -17 -44 -44 -79 -49 -32 -5 -79 27 -83 56 -4 42 3 71 26 98
31 37 32 46 3 38 -13 -4 -39 -9 -58 -11 -108 -11 -140 -25 -141 -63 -4 -87 4
-126 36 -172 27 -39 44 -53 110 -90 38 -21 124 -30 178 -17 68 15 143 87 167
160 14 44 19 586 6 672 -19 128 -160 221 -290 193z m82 -159 c40 -14 52 -50
52 -153 0 -96 -13 -126 -62 -144 -31 -12 -41 -12 -67 -1 -39 18 -45 34 -46
139 -2 78 14 148 34 151 23 3 44 8 49 13 7 7 4 8 40 -5z"/>
<path d="M2976 1393 c-1 -1 -24 -5 -51 -8 -28 -4 -52 -9 -55 -10 -3 -2 -25 -6
-49 -10 -24 -3 -53 -10 -65 -14 -11 -4 -28 -7 -36 -6 -8 1 -21 -3 -28 -8 -7
-6 -15 -7 -19 -4 -3 4 -12 2 -20 -4 -7 -6 -13 -9 -13 -5 0 3 -15 0 -34 -8 -19
-8 -37 -12 -40 -9 -3 4 -16 -5 -29 -19 -21 -22 -22 -32 -21 -139 1 -63 2 -116
3 -119 1 -3 10 14 21 38 10 23 24 42 30 42 6 0 8 6 4 13 -4 6 -4 9 1 5 4 -4
14 -3 22 3 7 6 13 8 13 5 0 -4 8 -2 18 3 18 10 73 22 110 24 12 0 22 4 22 8 0
4 8 6 18 5 21 -3 22 -20 5 -63 -7 -18 -13 -35 -13 -38 0 -5 -1 -8 -5 -22 -15
-56 -20 -73 -33 -103 -9 -19 -16 -39 -17 -45 -1 -5 -3 -12 -4 -15 -24 -66 -62
-179 -65 -190 -2 -8 -16 -46 -30 -85 -14 -38 -23 -71 -21 -73 2 -3 -3 -11 -11
-19 -8 -8 -12 -18 -10 -22 8 -12 -47 -70 -69 -74 -36 -7 -57 -19 -46 -26 14
-9 349 -7 357 2 4 4 -2 10 -12 14 -10 4 -24 12 -31 18 -12 12 -10 85 2 105 4
7 13 33 20 58 7 26 42 142 78 258 72 228 157 518 157 533 0 7 -47 11 -54 4z"/>
<path d="M2179 1181 c-19 -9 -37 -18 -41 -19 -5 -1 -9 -2 -10 -3 -2 0 -11 -2
-20 -4 -28 -5 -78 -29 -78 -37 0 -5 -4 -8 -9 -8 -15 0 -131 -55 -131 -62 0 -3
25 -5 56 -3 59 4 124 -18 124 -41 0 -7 6 -14 13 -16 13 -5 15 -52 17 -353 2
-139 -8 -208 -27 -203 -15 3 -66 -22 -59 -29 11 -11 337 -10 343 1 3 5 1 6 -5
2 -7 -4 -12 -2 -12 3 0 6 -9 11 -20 11 -42 0 -49 39 -50 316 -1 142 -2 304 -3
359 l-2 100 -26 1 c-15 1 -42 -6 -60 -15z"/>
</g>
</svg>
